<svg viewBox="0 0 20 21" fill="none" xmlns="http://www.w3.org/2000/svg">
<path d="M17.7726 13.9822L17.7725 13.9823L17.7777 13.9885C18.2078 14.506 18.466 15.1815 18.466 15.916C18.466 16.8251 18.064 17.638 17.4293 18.2065C16.8798 18.6787 16.1826 18.966 15.416 18.966C14.6815 18.966 14.006 18.7078 13.4885 18.2777L13.4885 18.2777L13.4822 18.2726C12.7991 17.7179 12.366 16.8735 12.366 15.916C12.366 14.9509 12.8064 14.0937 13.5078 13.5407L13.5078 13.5407L13.5134 13.5362C14.035 13.1162 14.6979 12.866 15.416 12.866C16.3735 12.866 17.2179 13.2991 17.7726 13.9822ZM15.1521 17.9873L15.1521 17.9874L15.1576 17.9841L16.3305 17.2853C16.3309 17.2851 16.3313 17.2848 16.3317 17.2846C16.7336 17.0465 16.9743 16.6059 16.9743 16.1493V14.7493C16.9743 14.0211 16.3776 13.4243 15.6493 13.4243C14.9211 13.4243 14.3243 14.0211 14.3243 14.7493V15.4017L13.8016 15.7134C13.1546 16.0932 12.9765 16.9102 13.3364 17.5271L13.3363 17.5271L13.3431 17.5383C13.5916 17.9466 14.0311 18.1743 14.4743 18.1743C14.7307 18.1743 14.9595 18.0997 15.1521 17.9873Z" fill="#4FCCDD" stroke="#4FCCDD" stroke-width="1.4"/>
<path d="M12.2746 5.38366V2.58366C12.2746 2.35033 12.0913 2.16699 11.8579 2.16699H8.14128C7.90794 2.16699 7.72461 2.35033 7.72461 2.58366V5.38366C7.72461 5.61699 7.90794 5.80033 8.14128 5.80033H11.8579C12.0913 5.80033 12.2746 5.61699 12.2746 5.38366Z" fill="#4FCCDD"/>
<path d="M6.04206 2.18359C3.90872 2.31692 2.45039 3.41692 1.90872 5.25026C1.82539 5.52526 2.02539 5.80026 2.30872 5.80026H6.05872C6.29206 5.80026 6.47539 5.61692 6.47539 5.38359V2.60026C6.47539 2.36692 6.27539 2.16692 6.04206 2.18359Z" fill="#4FCCDD"/>
<path d="M13.9587 2.1748C16.0921 2.30813 17.5504 3.40813 18.0921 5.24147C18.1754 5.51647 17.9754 5.79147 17.6921 5.79147H13.9421C13.7087 5.79147 13.5254 5.60813 13.5254 5.3748V2.59147C13.5254 2.35813 13.7254 2.15813 13.9587 2.1748Z" fill="#4FCCDD"/>
<path d="M18.3337 7.46647V11.1165C18.3337 11.4248 18.0087 11.6248 17.7337 11.4831C17.0337 11.1165 16.2337 10.9165 15.417 10.9165C14.0753 10.9165 12.767 11.4665 11.8337 12.4248C10.917 13.3581 10.417 14.5998 10.417 15.9165C10.417 16.5915 10.6837 17.4581 11.017 18.1831C11.1503 18.4748 10.9503 18.8331 10.6253 18.8331H6.50866C3.83366 18.8331 1.66699 16.6665 1.66699 13.9915V7.46647C1.66699 7.23314 1.85033 7.0498 2.08366 7.0498H17.917C18.1503 7.0498 18.3337 7.23314 18.3337 7.46647Z" fill="#4FCCDD"/>
</svg>
